<?xml version="1.0" standalone="no"?>
<!DOCTYPE svg PUBLIC "-//W3C//DTD SVG 20010904//EN"
 "http://www.w3.org/TR/2001/REC-SVG-20010904/DTD/svg10.dtd">
<svg version="1.0" xmlns="http://www.w3.org/2000/svg"
 width="1280.000000pt" height="1185.000000pt" viewBox="0 0 1280.000000 1185.000000"
 preserveAspectRatio="xMidYMid meet">
<metadata>
Created by potrace 1.15, written by Peter Selinger 2001-2017
</metadata>
<g transform="translate(0.000000,1185.000000) scale(0.100000,-0.100000)"
fill="#000000" stroke="none">
<path d="M7547 11779 c-66 -26 -108 -60 -166 -133 -106 -133 -135 -209 -151
-393 -5 -67 -15 -134 -20 -148 -20 -53 -14 -89 51 -294 25 -79 32 -93 75 -141
60 -66 64 -87 47 -235 -16 -143 -44 -221 -92 -253 -41 -29 -125 -51 -214 -57
-121 -9 -123 -10 -206 -89 -91 -86 -143 -115 -266 -145 -191 -48 -293 -87
-343 -134 -26 -24 -109 -161 -171 -283 -36 -71 -50 -110 -81 -229 -4 -16 -18
-66 -30 -110 -32 -118 -55 -208 -79 -320 -12 -55 -26 -118 -31 -140 -14 -59
-76 -378 -90 -462 -6 -40 -15 -75 -20 -78 -11 -7 -20 102 -20 252 0 124 -5
172 -45 423 -8 52 -22 140 -31 195 -12 80 -19 104 -37 118 -58 46 -232 156
-316 200 -231 120 -431 242 -505 309 -46 40 -116 170 -116 214 0 34 25 174 50
279 11 44 24 148 30 230 6 83 20 193 30 245 43 220 45 244 26 293 -37 96 -199
213 -349 252 -171 44 -259 28 -450 -84 -71 -41 -81 -51 -121 -121 -43 -75 -59
-112 -91 -223 -22 -73 -23 -216 -3 -272 8 -22 25 -89 37 -150 12 -60 27 -130
33 -155 32 -134 37 -173 38 -252 0 -48 -4 -97 -9 -110 -4 -13 -17 -49 -27 -82
-17 -54 -23 -62 -89 -108 -146 -103 -286 -180 -344 -188 -176 -26 -290 -53
-349 -84 -16 -8 -63 -51 -104 -95 -88 -95 -94 -113 -143 -426 -8 -49 -28 -146
-45 -215 -17 -69 -39 -163 -49 -210 -11 -47 -27 -105 -36 -130 -36 -101 -47
-140 -65 -245 -23 -130 -25 -237 -6 -308 7 -29 21 -88 31 -132 29 -136 46
-208 62 -270 32 -125 128 -426 171 -540 11 -27 30 -77 42 -109 21 -54 22 -71
17 -190 -7 -174 -24 -486 -42 -781 -19 -297 -19 -389 -2 -402 6 -5 46 -22 87
-37 118 -43 120 -45 120 -124 0 -37 7 -179 15 -317 19 -321 33 -610 45 -905 9
-207 13 -246 37 -330 24 -85 27 -110 25 -235 -1 -76 -6 -189 -13 -250 -14
-135 -22 -1714 -9 -1830 4 -44 14 -117 21 -163 l12 -82 -154 -230 c-150 -224
-155 -231 -209 -256 -30 -14 -69 -33 -87 -42 -73 -36 -69 -133 6 -171 49 -25
71 -29 204 -41 100 -9 135 -7 258 11 79 11 146 22 151 25 4 3 17 37 29 77 12
40 25 76 29 80 4 4 45 17 91 28 116 28 251 69 267 81 9 8 12 59 12 191 l0 181
41 62 40 62 -10 139 c-27 362 -32 510 -22 634 6 68 18 201 26 294 8 94 22 249
30 345 11 124 15 264 13 480 -2 239 1 335 15 445 9 77 22 190 27 250 20 200
38 388 50 510 19 203 28 267 39 278 15 15 19 8 36 -54 9 -30 22 -74 29 -99 8
-25 21 -67 29 -95 8 -27 31 -102 51 -165 19 -63 47 -173 61 -245 14 -71 30
-148 35 -170 4 -22 16 -78 25 -125 9 -47 23 -114 31 -150 27 -129 34 -189 49
-440 26 -446 29 -474 80 -715 8 -38 20 -92 27 -120 7 -33 13 -228 17 -575 l6
-525 94 -46 c67 -32 97 -52 104 -70 5 -13 12 -134 14 -269 5 -252 7 -263 52
-349 17 -32 24 -36 102 -52 108 -23 308 -25 348 -5 52 28 61 54 61 183 0 155
-21 287 -65 401 -19 51 -35 99 -35 106 0 8 27 34 60 57 38 27 63 52 67 68 6
24 -1 154 -26 501 -5 69 -12 314 -16 545 -3 231 -11 461 -16 510 -6 50 -16
146 -24 215 -8 69 -22 184 -32 255 -21 160 -21 240 1 620 9 165 23 419 31 565
19 353 33 593 46 775 12 167 8 158 96 202 58 29 113 90 113 126 0 13 -6 46
-14 73 -41 139 -56 264 -71 589 -8 182 -22 427 -32 546 l-16 216 45 89 c49 96
82 173 178 414 l61 155 9 150 c5 83 10 163 10 180 0 60 19 7 35 -100 38 -265
93 -407 223 -578 58 -77 442 -478 510 -533 29 -24 77 -51 107 -60 30 -10 56
-22 58 -28 7 -17 -9 -104 -34 -196 -23 -81 -24 -97 -22 -365 2 -154 7 -361 13
-460 6 -99 13 -418 15 -710 5 -496 10 -615 36 -855 8 -75 7 -121 -5 -215 -18
-142 -29 -176 -89 -275 -25 -41 -50 -95 -57 -119 -14 -52 -15 -342 -1 -432 5
-35 12 -116 16 -179 8 -147 38 -327 82 -483 12 -41 25 -65 45 -80 87 -66 95
-76 101 -121 9 -61 -8 -105 -41 -112 -76 -17 -89 -25 -108 -66 -16 -35 -18
-66 -17 -233 0 -163 -2 -197 -16 -218 -9 -14 -65 -66 -125 -116 -227 -191
-236 -202 -296 -370 -22 -60 -30 -99 -26 -116 9 -34 121 -116 194 -141 155
-52 423 11 522 123 22 25 57 80 78 122 l37 76 115 0 c96 0 126 4 180 24 94 35
97 39 105 137 6 74 4 95 -16 156 -20 64 -21 75 -9 122 7 28 26 78 42 111 74
153 86 264 41 361 -26 55 -28 71 -34 239 -3 99 -12 200 -19 225 -27 93 -12
363 46 828 25 203 23 255 -13 326 -46 90 -52 166 -22 276 12 41 27 100 34 130
7 30 17 73 23 95 11 41 25 99 62 260 37 159 48 208 65 285 9 41 23 102 30 135
8 33 28 121 45 195 45 201 84 344 112 415 36 92 81 185 90 185 5 0 10 -6 12
-12 5 -17 25 -232 36 -388 10 -127 21 -230 45 -420 8 -58 21 -170 30 -250 21
-194 31 -265 50 -330 24 -85 35 -218 34 -420 -1 -244 -12 -398 -38 -550 -18
-101 -24 -196 -33 -495 -21 -725 -21 -752 -2 -829 20 -79 20 -99 15 -379 -4
-162 -2 -200 10 -212 8 -8 68 -31 134 -51 180 -54 264 -112 299 -205 24 -65
72 -127 118 -150 46 -24 203 -49 297 -48 59 0 132 13 274 50 29 8 53 21 59 32
14 26 2 140 -19 181 -22 44 -183 232 -303 356 -57 58 -121 131 -143 164 -42
62 -46 85 -32 201 12 98 14 103 67 137 28 18 54 43 59 56 16 42 44 433 65 927
5 120 28 317 39 334 6 11 35 191 35 222 0 37 -75 183 -132 259 l-39 52 1 278
c0 254 3 290 25 407 14 70 34 175 45 233 30 159 50 260 61 310 31 142 34 1059
4 1185 -30 126 -11 300 43 391 15 27 31 56 34 64 3 8 81 116 173 240 94 127
181 255 200 295 18 38 63 132 99 207 36 75 66 143 66 150 0 7 11 58 25 113 14
55 30 138 36 184 8 75 8 88 -9 120 -26 48 -41 122 -47 229 -3 48 -13 114 -21
147 -28 107 -43 168 -64 260 -12 50 -28 113 -37 140 -8 28 -21 73 -29 100 -22
77 -111 344 -132 400 -57 147 -106 267 -134 325 -84 173 -204 314 -322 379
-39 21 -98 53 -131 72 -33 18 -171 88 -307 156 -238 119 -288 152 -288 191 0
24 78 170 135 252 117 167 132 255 151 845 l6 170 -37 60 c-46 76 -66 97 -141
151 -83 59 -187 93 -432 139 -107 20 -156 18 -215 -6z m1269 -3706 c3 -10 17
-42 31 -71 l26 -54 -18 -50 c-15 -42 -17 -68 -12 -161 6 -101 9 -113 33 -138
14 -15 37 -30 49 -33 34 -9 38 -36 15 -99 -23 -62 -55 -107 -75 -107 -21 0
-28 37 -27 135 2 81 -2 98 -31 165 -31 74 -32 77 -32 235 0 159 5 195 25 195
6 0 13 -8 16 -17z"/>
<path d="M10902 11015 c-92 -34 -150 -71 -217 -139 -101 -102 -146 -205 -170
-391 -26 -209 -28 -280 -6 -420 33 -218 37 -230 116 -360 90 -149 145 -253
145 -275 0 -22 -7 -27 -183 -154 -94 -66 -164 -109 -190 -116 -329 -81 -414
-127 -473 -256 -77 -170 -128 -385 -139 -593 -5 -112 -12 -137 -70 -276 -45
-106 -73 -239 -80 -377 -3 -45 -9 -236 -13 -423 l-8 -340 28 -30 28 -31 0
-144 c-1 -154 -10 -278 -35 -450 -9 -58 -22 -157 -30 -220 -8 -63 -19 -149
-24 -190 -6 -41 -11 -101 -11 -133 0 -32 -7 -86 -15 -120 -39 -165 -45 -203
-45 -304 0 -158 34 -318 99 -469 80 -186 85 -211 91 -438 4 -172 8 -210 20
-217 8 -4 44 -16 80 -28 36 -11 79 -25 95 -31 17 -6 83 -28 148 -49 64 -21
126 -45 135 -52 20 -15 27 -51 107 -504 8 -46 16 -191 19 -340 7 -291 28 -632
50 -805 19 -144 35 -232 101 -535 7 -33 20 -95 29 -138 9 -44 18 -82 21 -87 2
-4 9 -51 15 -103 9 -81 8 -120 -9 -254 -11 -87 -25 -219 -32 -293 -6 -74 -15
-142 -20 -151 -5 -9 -85 -91 -178 -181 -174 -167 -207 -205 -260 -300 -44 -78
-42 -92 12 -84 23 3 103 10 177 15 125 9 244 25 381 52 44 9 77 26 145 75 71
51 97 64 127 64 43 0 80 -30 70 -57 -12 -35 -44 -108 -58 -135 -8 -14 -15 -35
-15 -47 0 -27 52 -64 128 -90 l64 -22 121 32 c67 17 138 34 157 39 36 7 87 24
180 60 30 12 66 25 80 30 32 10 98 38 127 52 13 7 29 30 38 57 24 74 43 154
39 165 -4 12 -32 328 -44 511 -5 66 -6 145 -4 175 7 74 43 261 79 415 8 33 26
114 41 180 15 66 33 147 40 180 60 262 66 308 60 420 -9 153 -53 523 -76 640
-6 28 -14 91 -20 140 -14 137 -37 294 -50 350 -18 79 -17 193 2 250 10 28 26
82 38 122 13 48 26 74 38 77 10 3 72 13 137 22 66 8 165 21 220 29 239 33 228
28 221 89 -9 72 -37 287 -51 401 -8 61 -16 128 -17 150 l-3 40 90 46 c50 26
108 62 130 81 38 34 40 38 39 92 -2 55 -12 104 -62 296 -58 225 -97 461 -87
530 3 25 13 88 20 140 35 246 46 312 65 405 25 123 47 253 60 365 9 75 15 92
51 144 48 68 49 43 -10 323 -43 206 -46 229 -61 553 -18 367 -54 555 -170 885
-15 44 -37 107 -48 140 -42 125 -96 241 -125 273 -44 47 -290 185 -412 230
-16 6 -77 18 -134 27 -128 18 -176 42 -251 121 -76 82 -98 146 -106 309 l-6
120 44 46 c23 25 68 64 98 86 66 49 115 100 124 129 4 11 -2 122 -13 246 -19
224 -20 225 -60 312 -92 200 -249 366 -401 426 -72 29 -194 27 -278 -5z m78
-7565 c7 -36 30 -128 52 -205 83 -289 101 -391 113 -630 3 -71 12 -179 20
-240 25 -201 28 -293 10 -375 -21 -93 -43 -196 -59 -278 -10 -48 -21 -71 -46
-98 -54 -55 -80 -43 -80 36 0 40 -18 101 -75 249 l-36 93 15 212 c9 116 21
264 27 329 6 72 8 197 4 325 -3 114 -7 243 -8 287 -2 92 11 358 20 395 l6 25
12 -30 c8 -17 19 -60 25 -95z"/>
<path d="M1370 10798 c-76 -22 -158 -101 -257 -248 -63 -94 -81 -127 -209
-377 -124 -243 -104 -206 -208 -384 -80 -137 -192 -299 -219 -316 -6 -4 -27
-9 -47 -13 -50 -8 -64 -53 -56 -179 l6 -94 -83 -86 c-83 -88 -123 -154 -163
-271 -27 -78 -27 -323 0 -430 75 -300 210 -703 311 -925 101 -223 148 -290
266 -381 34 -26 59 -53 59 -63 0 -41 -130 -329 -182 -405 -12 -17 -39 -52 -60
-77 -21 -26 -38 -56 -38 -68 0 -12 34 -56 85 -110 47 -50 85 -95 85 -101 0 -6
-9 -28 -20 -50 -11 -22 -20 -54 -20 -72 0 -18 -5 -51 -10 -73 -19 -79 -50
-480 -50 -644 0 -164 17 -540 42 -956 18 -288 17 -841 -1 -920 -12 -56 -27
-114 -87 -350 -43 -168 -69 -559 -81 -1211 -6 -306 -4 -348 12 -416 18 -76 17
-77 -4 -111 -26 -43 -26 -70 0 -127 19 -42 19 -46 4 -81 -15 -31 -15 -47 -6
-107 23 -151 10 -226 -83 -455 -85 -208 -171 -363 -228 -408 -38 -30 -114
-169 -105 -192 3 -9 23 -23 43 -32 73 -30 348 -11 507 37 71 21 68 18 81 98
12 70 68 230 81 230 14 0 25 -52 25 -126 0 -67 20 -90 82 -98 66 -8 74 3 82
121 4 54 13 139 21 188 26 155 44 394 33 434 -5 20 -33 72 -61 115 l-52 80 1
80 c1 45 6 99 13 121 22 76 49 230 56 315 4 47 11 90 15 95 11 14 84 233 110
330 79 289 129 668 130 982 0 117 23 235 78 403 7 19 23 73 37 120 44 149 54
147 78 -20 22 -150 21 -237 -4 -335 -34 -133 -36 -160 -44 -436 -6 -233 -5
-279 11 -373 15 -88 16 -114 6 -151 -16 -61 -15 -118 4 -208 12 -61 15 -134
12 -379 l-3 -303 -29 -60 c-16 -33 -37 -71 -46 -85 -33 -48 -68 -115 -78 -152
-12 -42 -1 -202 22 -328 14 -75 38 -220 53 -315 l8 -50 56 -3 c40 -2 59 1 68
12 8 9 15 57 18 118 5 126 9 148 28 148 21 0 31 -25 50 -135 20 -116 39 -169
74 -209 49 -54 76 -59 313 -64 l217 -4 31 30 c54 55 37 106 -56 171 -27 19
-77 65 -110 102 -52 57 -67 83 -97 166 -80 222 -96 333 -79 531 7 75 19 168
27 207 9 38 22 104 31 145 8 41 21 104 29 140 7 36 21 124 29 195 9 72 21 171
27 220 13 108 34 301 54 486 8 74 18 146 24 160 23 61 33 217 20 316 -19 148
-17 389 4 503 39 210 75 349 174 675 8 28 22 73 30 100 26 86 89 336 106 420
58 282 74 407 93 706 15 241 15 249 -7 410 -12 90 -23 205 -25 256 -2 58 -9
103 -18 122 -31 59 -21 99 40 171 51 60 124 195 230 427 l25 53 -22 42 c-52
103 -216 302 -298 362 l-47 35 -92 -9 c-117 -11 -132 -7 -132 34 0 53 28 129
99 275 40 82 81 200 81 233 0 28 -17 58 -58 100 l-35 37 26 40 c15 22 27 45
27 51 0 5 -21 52 -47 103 -73 141 -100 206 -113 272 -7 33 -16 78 -21 100 -24
104 -25 98 25 139 30 24 46 45 46 60 0 13 -19 51 -42 86 -70 104 -68 98 -61
185 3 44 12 89 19 100 10 16 11 44 4 130 -6 61 -13 297 -16 525 -6 453 -10
484 -66 600 -22 45 -56 90 -113 146 -102 103 -207 158 -342 180 -100 16 -105
16 -153 2z"/>
</g>
</svg>
